Coordinates
version=1
nRows=38
nColumns=12
inDegrees=yes

Units are S.I. units (second, meters, Newtons, ...)
Angles are in degrees

endheader
time	SC_y	SC_z	SC_x	AC_y	AC_z	AC_x	GH_y	GH_z	GH_yy	EL_x	PS_y
       0.0              -16.06          13.02          70.45          37.49         -12.05         -5.295          173.1         -6.225         -144.2           19.8          38.95
   0.03147              -16.07          13.03          70.44          37.49         -12.06         -5.291          173.1         -6.221         -144.2          19.81          38.97
   0.06293              -16.08          13.03          70.44           37.5         -12.06         -5.287          173.1         -6.215         -144.2          19.83          38.99
    0.0944              -16.08          13.04          70.43           37.5         -12.06         -5.283          173.1          -6.21         -144.1          19.85           39.0
    0.1259              -16.09          13.04          70.42           37.5         -12.06         -5.279          173.1         -6.204         -144.1          19.87          39.02
    0.1573               -16.1          13.04          70.41          37.51         -12.06         -5.274          173.1         -6.198         -144.0          19.89          39.04
    0.1888               -16.1          13.05           70.4          37.51         -12.06         -5.269          173.1         -6.192         -144.0          19.91          39.07
    0.2203              -16.11          13.06          70.39          37.52         -12.06         -5.264          173.1         -6.185         -143.9          19.93          39.09
    0.2517              -16.12          13.06          70.38          37.52         -12.07         -5.258          173.0         -6.178         -143.9          19.96          39.12
    0.2832              -16.13          13.07          70.37          37.53         -12.07         -5.252          173.0          -6.17         -143.8          19.99          39.14
    0.3147              -16.14          13.07          70.36          37.54         -12.07         -5.246          173.0         -6.161         -143.7          20.02          39.17
    0.3461              -16.15          13.08          70.34          37.54         -12.07         -5.239          173.0         -6.152         -143.7          20.05           39.2
    0.3776              -16.16          13.09          70.33          37.55         -12.07         -5.231          173.0         -6.142         -143.6          20.08          39.24
    0.4091              -16.17           13.1          70.31          37.56         -12.08         -5.223          173.0         -6.131         -143.5          20.12          39.27
    0.4405              -16.19          13.11           70.3          37.57         -12.08         -5.214          173.0          -6.12         -143.4          20.16          39.31
     0.472               -16.2          13.12          70.28          37.57         -12.08         -5.205          173.0         -6.107         -143.3           20.2          39.36
    0.5035              -16.22          13.13          70.26          37.58         -12.09         -5.194          173.0         -6.093         -143.2          20.25           39.4
    0.5349              -16.24          13.14          70.24          37.59         -12.09         -5.183          173.0         -6.078         -143.1           20.3          39.46
    0.5664              -16.26          13.15          70.21          37.61         -12.09         -5.171          173.0         -6.062         -142.9          20.35          39.51
    0.5978              -16.28          13.17          70.19          37.62          -12.1         -5.157          172.9         -6.044         -142.8          20.41          39.57
    0.6293               -16.3          13.18          70.16          37.63          -12.1         -5.142          172.9         -6.025         -142.6          20.48          39.64
    0.6608              -16.33           13.2          70.13          37.65         -12.11         -5.126          172.9         -6.003         -142.5          20.55          39.71
    0.6922              -16.35          13.22           70.1          37.67         -12.11         -5.108          172.9          -5.98         -142.3          20.63          39.79
    0.7237              -16.39          13.24          70.06          37.68         -12.12         -5.088          172.9         -5.953         -142.1          20.72          39.88
    0.7552              -16.42          13.26          70.02          37.71         -12.13         -5.066          172.8         -5.924         -141.9          20.82          39.98
    0.7866              -16.46          13.29          69.97          37.73         -12.13         -5.041          172.8         -5.891         -141.6          20.93           40.1
    0.8181               -16.5          13.32          69.92          37.75         -12.14         -5.013          172.8         -5.855         -141.3          21.05          40.22
    0.8496              -16.55          13.35          69.86          37.78         -12.15         -4.982          172.7         -5.814         -141.0          21.19          40.36
     0.881              -16.61          13.39          69.79          37.82         -12.16         -4.947          172.7         -5.767         -140.6          21.35          40.52
    0.9125              -16.67          13.43          69.71          37.86         -12.18         -4.906          172.7         -5.714         -140.2          21.53           40.7
     0.944              -16.74          13.48          69.63           37.9         -12.19         -4.861          172.6         -5.654         -139.7          21.73          40.91
    0.9754              -16.82          13.53          69.53          37.95         -12.21         -4.808          172.5         -5.585         -139.2          21.97          41.14
     1.007              -16.91          13.59          69.41          38.01         -12.23         -4.747          172.5         -5.505         -138.5          22.24          41.42
     1.038              -17.02          13.67          69.28          38.07         -12.25         -4.677          172.4         -5.412         -137.8          22.55          41.74
      1.07              -17.15          13.75          69.12          38.15         -12.27         -4.594          172.3         -5.304         -136.9          22.92          42.11
     1.101               -17.3          13.85          68.94          38.24          -12.3         -4.497          172.2         -5.176         -135.9          23.35          42.54
     1.133              -17.48          13.98          68.72          38.35         -12.34         -4.382          172.1         -5.024         -134.7          23.87          43.07
     1.164               -17.7          14.12          68.46          38.48         -12.38         -4.243          171.9         -4.841         -133.3          24.49          43.69
